#N canvas 522 42 450 300 12;
#N canvas 271 196 450 300 dac 0;
#X obj 28 46 env~;
#X obj 28 124 s vu;
#X obj 28 100 - 100;
#X obj 19 208 catch~ mono;
#X obj 20 266 throw~ dacout-1;
#X obj 30 237 throw~ dacout-2;
#X obj 28 73 spigot 1;
#X obj 122 50 r vu-view;
#X obj 122 76 t f f;
#X obj 122 102 sel;
#X msg 122 128 \; vu -100;
#X obj 28 21 clone -s 1 fd_dacout_rec 2 vol;
#X obj 322 25 r vol-line;
#X obj 322 51 line;
#X obj 322 77 s vol-set;
#X obj 267 192 catch~ rec-1;
#X obj 281 219 catch~ rec-2;
#X obj 253 160 r rec;
#X obj 253 266 writesf~ 2;
#X connect 0 0 6 0;
#X connect 2 0 1 0;
#X connect 3 0 4 0;
#X connect 3 0 5 0;
#X connect 6 0 2 0;
#X connect 7 0 8 0;
#X connect 8 0 9 0;
#X connect 8 1 6 1;
#X connect 9 0 10 0;
#X connect 11 0 0 0;
#X connect 12 0 13 0;
#X connect 13 0 14 0;
#X connect 15 0 18 0;
#X connect 16 0 18 1;
#X connect 17 0 18 0;
#X restore 384 72 pd dac;
#N canvas 1110 130 143 201 vol 1;
#X obj 29 27 vsl 15 128 0 127 0 0 vol vol-set vol 0 -9 0 10 -262144
-1 -1 0 1;
#X obj 52 26 vu 15 120 vu vu -1 -8 0 10 -66577 -1 1 0;
#X obj 52 153 tgl 15 0 vu-view vu-view-set vu-view 17 7 0 10 -262144
-1 -1 0 1;
#X obj 29 175 nbx 5 14 -1e+37 1e+37 0 0 vol-set-set vol dB 0 -8 0 10
-262144 -1 -1 0 256;
#X restore 385 13 pd vol;
#N canvas 521 372 449 301 mod-2 0;
#X msg 159 229 all \$1;
#X obj 153 202 tgl 15 0 empty empty empty 17 7 0 10 -262144 -1 -1 0
1;
#X msg 42 25 10;
#X obj 42 51 fd_iterate;
#X obj 78 181 mtof;
#X obj 90 123 crand 0.8 120;
#X obj 57 252 clone _mod-2 10 2;
#X obj 124 95 crand 0.8 120;
#X obj 43 77 t f f b b;
#X obj 54 208 pack f f f f;
#N canvas 0 22 450 278 (subpatch) 0;
#X array notes-2 10 float 3;
#A 0 24 57.6001 84.8002 106.4 112 116 117.6 117.6 119.2 119.2;
#X coords 0 120 10 8 183 98 1 0 0;
#X restore 244 37 graph;
#X obj 78 154 tabread notes-2;
#X obj 240 190 t f f;
#X obj 240 216 sel 1;
#X obj 240 164 r mod-2;
#X connect 0 0 6 1;
#X connect 1 0 0 0;
#X connect 2 0 3 0;
#X connect 3 0 8 0;
#X connect 4 0 9 1;
#X connect 5 0 9 2;
#X connect 7 0 9 3;
#X connect 8 0 9 0;
#X connect 8 1 11 0;
#X connect 8 2 5 0;
#X connect 8 3 7 0;
#X connect 9 0 6 0;
#X connect 11 0 4 0;
#X connect 12 0 13 0;
#X connect 12 1 1 0;
#X connect 13 0 2 0;
#X connect 14 0 12 0;
#X restore 27 51 pd mod-2;
#N canvas 34 373 450 300 mod-1 0;
#X msg 154 223 all \$1;
#X obj 148 196 tgl 15 0 empty empty empty 17 7 0 10 -262144 -1 -1 0
1;
#X msg 42 25 10;
#X obj 42 51 fd_iterate;
#X obj 43 77 t f f b;
#X obj 76 161 mtof;
#X obj 52 188 pack f f f;
#X obj 88 103 crand 0.8 120;
#X obj 52 246 clone _mod-1 10 2;
#N canvas 0 22 450 278 (subpatch) 0;
#X array notes-1 10 float 3;
#A 0 24 57.6001 88 106.4 112 116 117.6 117.6 119.2 119.2;
#X coords 0 120 10 8 183 98 1 0 0;
#X restore 210 42 graph;
#X obj 76 134 tabread notes-1;
#X obj 240 164 r mod-1;
#X obj 240 190 t f f;
#X obj 240 216 sel 1;
#X connect 0 0 8 1;
#X connect 1 0 0 0;
#X connect 2 0 3 0;
#X connect 3 0 4 0;
#X connect 4 0 6 0;
#X connect 4 1 10 0;
#X connect 4 2 7 0;
#X connect 5 0 6 1;
#X connect 6 0 8 0;
#X connect 7 0 6 2;
#X connect 10 0 5 0;
#X connect 11 0 12 0;
#X connect 12 0 13 0;
#X connect 12 1 1 0;
#X connect 13 0 2 0;
#X restore 27 25 pd mod-1;
#N canvas 322 96 450 300 mmod 0;
#X floatatom 36 27 5 0 0 0 - - -;
#X obj 36 52 phasor~;
#X obj 115 130 _mmod 220 30;
#X obj 116 231 throw~ dacout-1;
#X obj 116 205 *~ 0.01;
#X floatatom 186 84 5 0 0 0 - - -;
#X floatatom 237 95 5 0 0 0 - - -;
#X floatatom 205 170 5 0 0 0 - - -;
#X floatatom 286 92 5 0 0 0 - - -;
#X obj 50 101 _mmod 220 30;
#X floatatom 130 50 5 0 0 0 - - -;
#X floatatom 174 45 5 0 0 0 - - -;
#X floatatom 218 45 5 0 0 0 - - -;
#X obj 326 18 tgl 15 0 empty empty empty 17 7 0 10 -262144 -1 -1 0
1;
#X obj 326 38 switch~;
#X connect 0 0 1 0;
#X connect 1 0 9 0;
#X connect 2 0 4 0;
#X connect 4 0 3 0;
#X connect 5 0 2 1;
#X connect 6 0 2 2;
#X connect 7 0 4 1;
#X connect 8 0 2 3;
#X connect 9 0 2 0;
#X connect 10 0 9 1;
#X connect 11 0 9 2;
#X connect 12 0 9 3;
#X connect 13 0 14 0;
#X restore 28 83 pd mmod;
#N canvas 504 62 679 537 rec 0;
#X obj 17 106 r filename;
#X obj 17 135 symbol;
#X obj 17 217 list trim;
#X obj 242 16 r start;
#X obj 394 16 r stop;
#X obj 394 165 del;
#X obj 17 243 s rec;
#X msg 426 342 \; rec stop \;;
#X obj 394 391 v stopquit;
#X obj 463 63 v stopquit;
#X obj 394 44 t f b;
#X msg 242 63 \; rec start \; mod-1 1 \; mod-2 1 \; vol-line 100 \$1
\; fadeout \$1 \;;
#X obj 394 224 v fadeout;
#X obj 394 256 t f f;
#X obj 394 283 del;
#X msg 444 275 \; vol-line 0 \$1;
#X obj 394 315 t b b;
#X obj 394 191 t b b;
#X obj 164 278 r printer;
#X obj 164 304 print;
#X msg 463 90 \; printer stopquit \$1;
#X msg 485 210 \; printer stopping...;
#X msg 394 443 \; printer quitting... \; pd quit;
#X obj 394 417 sel 1;
#X obj 394 139 expr $f1*60000-fadeout;
#X obj 17 163 makefilename %s.wav;
#X obj 17 191 list prepend open -bytes 4 -wave;
#X connect 0 0 1 0;
#X connect 1 0 25 0;
#X connect 2 0 6 0;
#X connect 3 0 11 0;
#X connect 4 0 10 0;
#X connect 5 0 17 0;
#X connect 8 0 23 0;
#X connect 9 0 20 0;
#X connect 10 0 24 0;
#X connect 10 1 9 0;
#X connect 12 0 13 0;
#X connect 13 0 14 0;
#X connect 13 1 15 0;
#X connect 14 0 16 0;
#X connect 16 0 8 0;
#X connect 16 1 7 0;
#X connect 17 0 12 0;
#X connect 17 1 21 0;
#X connect 18 0 19 0;
#X connect 23 0 22 0;
#X connect 24 0 5 0;
#X connect 25 0 26 0;
#X connect 26 0 2 0;
#X restore 385 42 pd rec;
#X obj 253 97 loadbang;
#X msg 24 167 \; filename test-1 \; start 5000 \; stop 1 \;;
#X msg 366 182 \; pd dsp 0;
#X msg 253 123 \; pd dsp 1 \; stopquit 1 \; fadeout 1000 \;;
#X msg 253 198 \; pd dsp 1 \; stopquit 0 \; fadeout 1000 \;;
#X connect 6 0 9 0;
