#N canvas 0 22 450 602 12;
#X obj 53 294 phasor~;
#X floatatom 51 270 5 0 0 0 - - -;
#X obj 130 335 cos~;
#X obj 122 272 phasor~;
#X floatatom 119 245 5 0 0 0 - - -;
#X obj 72 374 *~ 0.5;
#X obj 72 400 *~ 0.1;
#X obj 71 339 cos~;
#X floatatom 138 89 5 0 0 0 - - -;
#X obj 51 221 / 20;
#X floatatom 98 87 5 0 0 0 - - -;
#X obj 53 155 f;
#X obj 52 123 t b f;
#X obj 52 192 t f f;
#X obj 376 262 switch~;
#X obj 32 28 inlet;
#X obj 32 54 unpack;
#X obj 334 14 inlet;
#X obj 310 214 fd_switch;
#X obj 71 425 *~;
#X obj 284 345 loadbang;
#X obj 284 371 f \$1;
#X obj 284 397 mod \$2;
#X obj 284 423 + 1;
#X msg 284 449 set dacout-\$1;
#X obj 72 557 throw~;
#X obj 196 51 loadbang;
#X obj 196 77 metro 1000;
#X obj 196 103 crand 10 3000;
#X obj 196 129 t b f f;
#X obj 195 179 pack;
#X obj 195 205 vline~;
#X obj 195 231 osc~;
#X obj 195 153 crand 0.001 0.1;
#X obj 195 258 *~ 0.5;
#X obj 194 282 +~ -0.5;
#X obj 194 307 *~ 0.25;
#X connect 0 0 7 0;
#X connect 1 0 0 0;
#X connect 2 0 7 0;
#X connect 3 0 2 0;
#X connect 4 0 3 0;
#X connect 5 0 6 0;
#X connect 6 0 19 0;
#X connect 7 0 5 0;
#X connect 8 0 11 0;
#X connect 9 0 1 0;
#X connect 10 0 12 0;
#X connect 11 0 13 0;
#X connect 12 0 11 0;
#X connect 12 1 9 1;
#X connect 13 0 9 0;
#X connect 13 1 4 0;
#X connect 15 0 16 0;
#X connect 16 0 12 0;
#X connect 16 1 11 0;
#X connect 17 0 18 0;
#X connect 18 0 19 1;
#X connect 18 1 14 0;
#X connect 19 0 25 0;
#X connect 20 0 21 0;
#X connect 21 0 22 0;
#X connect 22 0 23 0;
#X connect 23 0 24 0;
#X connect 24 0 25 0;
#X connect 26 0 27 0;
#X connect 27 0 28 0;
#X connect 28 0 29 0;
#X connect 29 0 33 0;
#X connect 29 1 27 1;
#X connect 29 2 30 1;
#X connect 30 0 31 0;
#X connect 31 0 32 0;
#X connect 32 0 34 0;
#X connect 33 0 30 0;
#X connect 34 0 35 0;
#X connect 35 0 36 0;
#X connect 36 0 2 0;
