#N canvas 0 22 450 486 10;
#X obj 92 79 osc~;
#X obj 91 104 *~ 0.5;
#X obj 91 130 +~ 0.5;
#X obj 131 200 *~;
#X obj 93 201 *~;
#X obj 102 275 phasor~;
#X obj 194 287 cos~;
#X obj 195 262 phasor~;
#X obj 151 347 *~ 0.5;
#X obj 151 373 *~ 0.1;
#X obj 150 312 cos~;
#X obj 101 246 /~;
#X obj 91 160 *~ 0.8;
#X obj 151 403 *~;
#X obj 309 392 fd_switch;
#X obj 352 434 switch~;
#X obj 309 51 inlet;
#X obj 92 14 inlet;
#X obj 92 36 unpack f f f;
#X obj 39 303 loadbang;
#X obj 39 329 f \$1;
#X obj 39 355 mod \$2;
#X obj 39 381 + 1;
#X msg 39 407 set dacout-\$1;
#X obj 152 433 throw~;
#X connect 0 0 1 0;
#X connect 1 0 2 0;
#X connect 2 0 12 0;
#X connect 3 0 11 1;
#X connect 4 0 7 0;
#X connect 4 0 11 0;
#X connect 5 0 10 0;
#X connect 6 0 10 0;
#X connect 7 0 6 0;
#X connect 8 0 9 0;
#X connect 9 0 13 0;
#X connect 10 0 8 0;
#X connect 11 0 5 0;
#X connect 12 0 3 0;
#X connect 12 0 4 0;
#X connect 13 0 24 0;
#X connect 14 0 13 1;
#X connect 14 1 15 0;
#X connect 16 0 14 0;
#X connect 17 0 18 0;
#X connect 18 0 0 0;
#X connect 18 1 4 1;
#X connect 18 2 3 1;
#X connect 19 0 20 0;
#X connect 20 0 21 0;
#X connect 21 0 22 0;
#X connect 22 0 23 0;
#X connect 23 0 24 0;
